<svg xmlns="http://www.w3.org/2000/svg" viewBox="0 0 32 32">
  <defs>
    <linearGradient id="s" x1="0" y1="0" x2="0" y2="1">
      <stop offset="0%" stop-color="#3a4a6b"/>
      <stop offset="100%" stop-color="#101828"/>
    </linearGradient>
    <linearGradient id="g" x1="0" y1="0" x2="0" y2="1">
      <stop offset="0%" stop-color="#ffe07a"/>
      <stop offset="100%" stop-color="#d4982a"/>
    </linearGradient>
  </defs>
  <!-- Shield body -->
  <path d="M6 4 Q6 2,8 2 L24 2 Q26 2,26 4 L26 19 Q26 24,20 27 Q18 28,16 29 Q14 28,12 27 Q6 24,6 19 Z" fill="url(#s)" stroke="#c8a040" stroke-width="1.5"/>
  <!-- Shield highlight -->
  <path d="M6 4 Q6 2,8 2 L24 2 Q26 2,26 4 L26 19 Q26 24,20 27 Q18 28,16 29 Q14 28,12 27 Q6 24,6 19 Z" fill="rgba(255,255,255,0.08)"/>
  <!-- Crown -->
  <path d="M12.5 10 Q13 9,13.5 10 L14.5 12 L15.5 9.5 L16.5 12 L17.5 10 Q18 9,18.5 10 L18.5 14 L12.5 14 Z" fill="url(#g)" stroke="#c89820" stroke-width="0.5"/>
  <!-- Cross stripe -->
  <rect x="15" y="4" width="2" height="22" rx="0.5" fill="rgba(255,200,69,0.15)"/>
  <!-- Center gem -->
  <circle cx="16" cy="15" r="1.5" fill="#ffc845" opacity="0.7"/>
</svg>
